<svg xmlns="http://www.w3.org/2000/svg" viewBox="0 0 1265.68 342.19"><defs><style>.cls-1,.cls-5{fill:#2e3e51;}.cls-2{fill:#a4b5c1;}.cls-3,.cls-6{fill:#ff4d55;}.cls-4{fill:#e0e2e2;}.cls-5,.cls-6{font-size:217.33px;font-family:OpenSans-Extrabold, Open Sans;font-weight:800;}.cls-5{letter-spacing:-0.05em;}.cls-6{letter-spacing:-0.05em;}</style></defs><g id="Layer_2" data-name="Layer 2"><g id="Layer_2-2" data-name="Layer 2"><path class="cls-1" d="M76.78,0H200.61a77,77,0,0,1,76.77,76.78v99.06a77,77,0,0,1-76.77,76.77H160.47v89.58l-136-110.35c-7.17-6.06-14.7-17.53-18.37-26.13A75.84,75.84,0,0,1,0,175.59V76.78A77,77,0,0,1,76.78,0Z"/><path class="cls-2" d="M257.75,165.42H190.31v-66l19.63,46.37h44.3L243.9,112.62C235.41,85.42,228.53,63,196.7,63H137.83a36.42,36.42,0,0,0-36.3,36.29v9.82H52.91v36.29a36.42,36.42,0,0,0,36.3,36.29h71.26V233h40.14a57.34,57.34,0,0,0,57.14-57.14V165.42Z"/><path class="cls-3" d="M140.84,233V201.29H89.21a56.06,56.06,0,0,1-55.93-55.92V89.45H82.77a56.1,56.1,0,0,1,55.06-46.12H196.7c37.08,0,51.18,21.57,61.05,48.85V76.78a57.35,57.35,0,0,0-57.14-57.15H76.78A57.34,57.34,0,0,0,19.64,76.78v98.81c0,15.28,6.5,31.47,17.55,41.38l103.65,84.09V233Z"/><path class="cls-4" d="M54.91,157.21c79.89,21.41,135.4-2,135.4-57.8l14.57,34.39c37.7-2.35,30.92-44.09,30.88-44.39C228.83,73.74,218.75,63,196.7,63H137.83a36.42,36.42,0,0,0-36.3,36.29v9.82H52.91v36.29a35.8,35.8,0,0,0,2,11.84Z"/><text class="cls-5" transform="translate(360.33 198.8)">sniff</text><text class="cls-6" transform="translate(881.83 198.8)">app</text></g></g></svg>