<svg xmlns="http://www.w3.org/2000/svg" viewBox="0 0 1519.34 414.14"><defs><style>.cls-1{fill:#2e3e51;}.cls-2{fill:#a4b5c1;}.cls-3{fill:#ff4d55;}.cls-4{fill:#e0e2e2;}.cls-5{font-size:263.03px;fill:#fff;font-family:OpenSans-Extrabold, Open Sans;font-weight:800;letter-spacing:-0.05em;}</style></defs><g id="Layer_2" data-name="Layer 2"><g id="Layer_2-2" data-name="Layer 2"><path class="cls-1" d="M92.93,0H242.79a93.16,93.16,0,0,1,92.92,92.92V212.81a93.16,93.16,0,0,1-92.92,92.92H194.21V414.14L29.62,280.59C20.94,273.26,11.83,259.37,7.38,249A91.82,91.82,0,0,1,0,212.51V92.92C0,41.79,41.8,0,92.93,0Z"/><path class="cls-2" d="M312,200.2H230.33V120.31l23.76,56.12H307.7L295.18,136.3c-10.28-32.92-18.6-60.09-57.12-60.09H166.81a44.08,44.08,0,0,0-43.93,43.92V132H64v43.93A44.08,44.08,0,0,0,108,219.86h86.25V282h48.58A69.4,69.4,0,0,0,312,212.81V200.2Z"/><path class="cls-3" d="M170.45,282V243.62H108a67.85,67.85,0,0,1-67.69-67.68V108.25h59.9a67.9,67.9,0,0,1,66.64-55.81h71.25c44.87,0,61.94,26.11,73.89,59.12V92.92a69.4,69.4,0,0,0-69.16-69.16H92.93A69.39,69.39,0,0,0,23.77,92.92V212.51c0,18.5,7.87,38.09,21.24,50.08L170.45,364.36V282Z"/><path class="cls-4" d="M66.46,190.26c96.68,25.92,163.87-2.41,163.87-69.95L248,161.94c45.63-2.86,37.43-53.37,37.38-53.73-8.4-19-20.6-32-47.28-32H166.81a44.08,44.08,0,0,0-43.93,43.92V132H64v43.93a43.06,43.06,0,0,0,2.43,14.32Z"/><text class="cls-5" transform="translate(433.14 236.65)">sniff</text><text class="cls-5" transform="translate(1054.79 239.28)">app</text></g></g></svg>